<svg width="176" height="85" viewBox="0 0 176 85" fill="none" xmlns="http://www.w3.org/2000/svg">
<path d="M0 20C0 8.9543 8.9543 0 20 0H156C167.046 0 176 8.95431 176 20V85H0V20Z" fill="#EBEBEB"/>
<path d="M5 20C5 11.7157 11.7157 5 20 5H155C163.284 5 170 11.7157 170 20V85H5V20Z" fill="white"/>
<path d="M5 20C5 11.7157 11.7157 5 20 5H155C163.284 5 170 11.7157 170 20V85H5V20Z" stroke="#EBEBEB"/>
<g clip-path="url(#clip0_1994_11151)">
<path d="M154.957 14.7139H160.286L157.621 19.4282L154.957 14.7139ZM147.851 17.071C147.851 16.6048 147.981 16.1491 148.225 15.7615C148.469 15.3738 148.816 15.0717 149.222 14.8933C149.627 14.7149 150.074 14.6682 150.505 14.7592C150.935 14.8501 151.331 15.0746 151.642 15.4043C151.952 15.7339 152.164 16.1539 152.249 16.6112C152.335 17.0684 152.291 17.5423 152.123 17.9731C151.955 18.4038 151.67 18.7719 151.305 19.0309C150.94 19.2899 150.511 19.4282 150.071 19.4282C149.483 19.4282 148.918 19.1798 148.501 18.7378C148.085 18.2957 147.851 17.6962 147.851 17.071ZM139.857 19.4282V14.7139H144.298V19.4282H139.857Z" fill="#B3B3B3"/>
</g>
<path d="M17.4917 15.9961V21H16.8594V16.7856L15.5845 17.2505V16.6797L17.3926 15.9961H17.4917ZM22.4888 19.6533C22.4888 19.9564 22.4181 20.2139 22.2769 20.4258C22.1379 20.6354 21.9487 20.7949 21.7095 20.9043C21.4725 21.0137 21.2048 21.0684 20.9062 21.0684C20.6077 21.0684 20.3389 21.0137 20.0996 20.9043C19.8604 20.7949 19.6712 20.6354 19.5322 20.4258C19.3932 20.2139 19.3237 19.9564 19.3237 19.6533C19.3237 19.4551 19.3613 19.2739 19.4365 19.1099C19.514 18.9435 19.6222 18.7988 19.7612 18.6758C19.9025 18.5527 20.0688 18.4582 20.2603 18.3921C20.4539 18.3237 20.667 18.2896 20.8994 18.2896C21.2048 18.2896 21.4771 18.3488 21.7163 18.4673C21.9556 18.5835 22.1436 18.7441 22.2803 18.9492C22.4193 19.1543 22.4888 19.389 22.4888 19.6533ZM21.853 19.6396C21.853 19.4551 21.8132 19.2922 21.7334 19.1509C21.6536 19.0073 21.542 18.8957 21.3984 18.8159C21.2549 18.7362 21.0885 18.6963 20.8994 18.6963C20.7057 18.6963 20.5382 18.7362 20.397 18.8159C20.258 18.8957 20.1497 19.0073 20.0723 19.1509C19.9948 19.2922 19.9561 19.4551 19.9561 19.6396C19.9561 19.8311 19.9937 19.9951 20.0688 20.1318C20.1463 20.2663 20.2557 20.37 20.397 20.4429C20.5405 20.5135 20.7103 20.5488 20.9062 20.5488C21.1022 20.5488 21.2708 20.5135 21.4121 20.4429C21.5534 20.37 21.6616 20.2663 21.7368 20.1318C21.8143 19.9951 21.853 19.8311 21.853 19.6396ZM22.3726 17.3188C22.3726 17.5604 22.3088 17.778 22.1812 17.9717C22.0535 18.1654 21.8792 18.318 21.6582 18.4297C21.4372 18.5413 21.1865 18.5972 20.9062 18.5972C20.6214 18.5972 20.3674 18.5413 20.144 18.4297C19.923 18.318 19.7498 18.1654 19.6245 17.9717C19.4992 17.778 19.4365 17.5604 19.4365 17.3188C19.4365 17.0295 19.4992 16.7834 19.6245 16.5806C19.7521 16.3778 19.9264 16.2228 20.1475 16.1157C20.3685 16.0086 20.6203 15.9551 20.9028 15.9551C21.1877 15.9551 21.4406 16.0086 21.6616 16.1157C21.8826 16.2228 22.0558 16.3778 22.1812 16.5806C22.3088 16.7834 22.3726 17.0295 22.3726 17.3188ZM21.7402 17.3291C21.7402 17.1628 21.7049 17.0158 21.6343 16.8882C21.5636 16.7606 21.4657 16.6603 21.3403 16.5874C21.215 16.5122 21.0692 16.4746 20.9028 16.4746C20.7365 16.4746 20.5907 16.5099 20.4653 16.5806C20.3423 16.6489 20.2454 16.7469 20.1748 16.8745C20.1064 17.0021 20.0723 17.1536 20.0723 17.3291C20.0723 17.5 20.1064 17.6493 20.1748 17.7769C20.2454 17.9045 20.3434 18.0036 20.4688 18.0742C20.5941 18.1449 20.7399 18.1802 20.9062 18.1802C21.0726 18.1802 21.2173 18.1449 21.3403 18.0742C21.4657 18.0036 21.5636 17.9045 21.6343 17.7769C21.7049 17.6493 21.7402 17.5 21.7402 17.3291ZM23.3296 20.665C23.3296 20.5579 23.3626 20.4679 23.4287 20.395C23.4971 20.3198 23.5951 20.2822 23.7227 20.2822C23.8503 20.2822 23.9471 20.3198 24.0132 20.395C24.0815 20.4679 24.1157 20.5579 24.1157 20.665C24.1157 20.7699 24.0815 20.8587 24.0132 20.9316C23.9471 21.0046 23.8503 21.041 23.7227 21.041C23.5951 21.041 23.4971 21.0046 23.4287 20.9316C23.3626 20.8587 23.3296 20.7699 23.3296 20.665ZM23.333 17.647C23.333 17.5399 23.366 17.4499 23.4321 17.377C23.5005 17.3018 23.5985 17.2642 23.7261 17.2642C23.8537 17.2642 23.9505 17.3018 24.0166 17.377C24.085 17.4499 24.1191 17.5399 24.1191 17.647C24.1191 17.7518 24.085 17.8407 24.0166 17.9136C23.9505 17.9865 23.8537 18.0229 23.7261 18.0229C23.5985 18.0229 23.5005 17.9865 23.4321 17.9136C23.366 17.8407 23.333 17.7518 23.333 17.647ZM28.1079 18.1152V18.874C28.1079 19.2819 28.0715 19.626 27.9985 19.9062C27.9256 20.1865 27.8208 20.4121 27.6841 20.583C27.5474 20.7539 27.3822 20.8781 27.1885 20.9556C26.9971 21.0308 26.7806 21.0684 26.5391 21.0684C26.3477 21.0684 26.1711 21.0444 26.0093 20.9966C25.8475 20.9487 25.7017 20.8724 25.5718 20.7676C25.4442 20.6605 25.3348 20.5215 25.2437 20.3506C25.1525 20.1797 25.083 19.9723 25.0352 19.7285C24.9873 19.4847 24.9634 19.1999 24.9634 18.874V18.1152C24.9634 17.7074 24.9998 17.3656 25.0728 17.0898C25.1479 16.8141 25.2539 16.5931 25.3906 16.4268C25.5273 16.2581 25.6914 16.1374 25.8828 16.0645C26.0765 15.9915 26.293 15.9551 26.5322 15.9551C26.7259 15.9551 26.9036 15.979 27.0654 16.0269C27.2295 16.0724 27.3753 16.1465 27.5029 16.249C27.6305 16.3493 27.7388 16.4837 27.8276 16.6523C27.9188 16.8187 27.9883 17.0226 28.0361 17.2642C28.084 17.5057 28.1079 17.7894 28.1079 18.1152ZM27.4722 18.9766V18.0093C27.4722 17.786 27.4585 17.59 27.4312 17.4214C27.4061 17.2505 27.3685 17.1047 27.3184 16.9839C27.2682 16.8631 27.2044 16.7651 27.127 16.6899C27.0518 16.6147 26.964 16.5601 26.8638 16.5259C26.7658 16.4894 26.6553 16.4712 26.5322 16.4712C26.3818 16.4712 26.2485 16.4997 26.1323 16.5566C26.0161 16.6113 25.9181 16.6991 25.8384 16.8198C25.7609 16.9406 25.7017 17.099 25.6606 17.2949C25.6196 17.4909 25.5991 17.729 25.5991 18.0093V18.9766C25.5991 19.1999 25.6117 19.397 25.6367 19.5679C25.6641 19.7388 25.7039 19.8869 25.7563 20.0122C25.8088 20.1353 25.8726 20.2367 25.9478 20.3164C26.0229 20.3962 26.1095 20.4554 26.2075 20.4941C26.3078 20.5306 26.4183 20.5488 26.5391 20.5488C26.694 20.5488 26.8296 20.5192 26.9458 20.46C27.062 20.4007 27.1589 20.3084 27.2363 20.1831C27.3161 20.0555 27.3753 19.8926 27.4141 19.6943C27.4528 19.4938 27.4722 19.2546 27.4722 18.9766ZM29.8442 18.2007H30.2954C30.5164 18.2007 30.6987 18.1642 30.8423 18.0913C30.9881 18.0161 31.0964 17.9147 31.167 17.7871C31.2399 17.6572 31.2764 17.5114 31.2764 17.3496C31.2764 17.1582 31.2445 16.9976 31.1807 16.8677C31.1169 16.7378 31.0212 16.6398 30.8936 16.5737C30.766 16.5076 30.6042 16.4746 30.4082 16.4746C30.2305 16.4746 30.0732 16.5099 29.9365 16.5806C29.8021 16.6489 29.6961 16.7469 29.6187 16.8745C29.5435 17.0021 29.5059 17.1525 29.5059 17.3257H28.8735C28.8735 17.0728 28.9373 16.8426 29.0649 16.6353C29.1925 16.4279 29.3714 16.2627 29.6016 16.1396C29.834 16.0166 30.1029 15.9551 30.4082 15.9551C30.709 15.9551 30.9722 16.0086 31.1978 16.1157C31.4233 16.2205 31.5988 16.3778 31.7241 16.5874C31.8494 16.7948 31.9121 17.0534 31.9121 17.3633C31.9121 17.4886 31.8825 17.623 31.8232 17.7666C31.7663 17.9079 31.6763 18.04 31.5532 18.1631C31.4325 18.2861 31.2752 18.3875 31.0815 18.4673C30.8879 18.5448 30.6554 18.5835 30.3843 18.5835H29.8442V18.2007ZM29.8442 18.7202V18.3408H30.3843C30.701 18.3408 30.9631 18.3784 31.1704 18.4536C31.3778 18.5288 31.5407 18.6291 31.6592 18.7544C31.7799 18.8797 31.8643 19.0176 31.9121 19.168C31.9622 19.3161 31.9873 19.4642 31.9873 19.6123C31.9873 19.8447 31.9474 20.0509 31.8677 20.231C31.7902 20.411 31.6797 20.5636 31.5361 20.689C31.3949 20.8143 31.2285 20.9089 31.0371 20.9727C30.8457 21.0365 30.6372 21.0684 30.4116 21.0684C30.1951 21.0684 29.9912 21.0376 29.7998 20.9761C29.6107 20.9146 29.4432 20.8257 29.2974 20.7095C29.1515 20.591 29.0376 20.4463 28.9556 20.2754C28.8735 20.1022 28.8325 19.9051 28.8325 19.6841H29.4648C29.4648 19.8573 29.5024 20.0088 29.5776 20.1387C29.6551 20.2686 29.7645 20.37 29.9058 20.4429C30.0493 20.5135 30.2179 20.5488 30.4116 20.5488C30.6053 20.5488 30.7716 20.5158 30.9106 20.4497C31.0519 20.3813 31.1602 20.2788 31.2354 20.1421C31.3128 20.0054 31.3516 19.8333 31.3516 19.626C31.3516 19.4186 31.3083 19.2489 31.2217 19.1167C31.1351 18.9823 31.012 18.8831 30.8525 18.8193C30.6953 18.7533 30.5096 18.7202 30.2954 18.7202H29.8442Z" fill="#171717"/>
<path d="M16.9629 37.4688V46H16.2422V37.4688H16.9629ZM19.8164 41.0137V46H19.1191V39.6602H19.7871L19.8164 41.0137ZM19.6582 42.4375L19.3477 42.2617C19.3711 41.8867 19.4473 41.5352 19.5762 41.207C19.7051 40.8789 19.8789 40.5898 20.0977 40.3398C20.3203 40.0898 20.5801 39.8945 20.877 39.7539C21.1777 39.6133 21.5098 39.543 21.873 39.543C22.1895 39.543 22.4727 39.5859 22.7227 39.6719C22.9727 39.7578 23.1855 39.8945 23.3613 40.082C23.5371 40.2695 23.6699 40.5098 23.7598 40.8027C23.8535 41.0957 23.9004 41.4531 23.9004 41.875V46H23.1973V41.8691C23.1973 41.4316 23.1367 41.0898 23.0156 40.8438C22.8945 40.5938 22.7227 40.416 22.5 40.3105C22.2773 40.2051 22.0137 40.1523 21.709 40.1523C21.373 40.1523 21.0781 40.2266 20.8242 40.375C20.5742 40.5195 20.3633 40.709 20.1914 40.9434C20.0234 41.1738 19.8945 41.4219 19.8047 41.6875C19.7148 41.9492 19.666 42.1992 19.6582 42.4375ZM29.5137 44.3828C29.5137 44.2109 29.4707 44.041 29.3848 43.873C29.2988 43.7051 29.1328 43.5508 28.8867 43.4102C28.6445 43.2695 28.2871 43.1504 27.8145 43.0527C27.4629 42.9746 27.1484 42.8867 26.8711 42.7891C26.5977 42.6914 26.3672 42.5742 26.1797 42.4375C25.9922 42.3008 25.8496 42.1367 25.752 41.9453C25.6543 41.7539 25.6055 41.5273 25.6055 41.2656C25.6055 41.0312 25.6562 40.8105 25.7578 40.6035C25.8633 40.3926 26.0117 40.209 26.2031 40.0527C26.3984 39.8926 26.6328 39.7676 26.9062 39.6777C27.1836 39.5879 27.4941 39.543 27.8379 39.543C28.3262 39.543 28.7441 39.627 29.0918 39.7949C29.4434 39.959 29.7109 40.1836 29.8945 40.4688C30.082 40.7539 30.1758 41.0762 30.1758 41.4355H29.4785C29.4785 41.2168 29.4141 41.0098 29.2852 40.8145C29.1602 40.6191 28.9746 40.459 28.7285 40.334C28.4863 40.209 28.1895 40.1465 27.8379 40.1465C27.4746 40.1465 27.1797 40.2012 26.9531 40.3105C26.7266 40.4199 26.5605 40.5586 26.4551 40.7266C26.3535 40.8945 26.3027 41.0684 26.3027 41.248C26.3027 41.3887 26.3242 41.5176 26.3672 41.6348C26.4141 41.748 26.4961 41.8535 26.6133 41.9512C26.7344 42.0488 26.9062 42.1406 27.1289 42.2266C27.3516 42.3125 27.6406 42.3965 27.9961 42.4785C28.5078 42.5918 28.9258 42.7305 29.25 42.8945C29.5781 43.0547 29.8203 43.2539 29.9766 43.4922C30.1328 43.7266 30.2109 44.0117 30.2109 44.3477C30.2109 44.6094 30.1562 44.8496 30.0469 45.0684C29.9375 45.2832 29.7793 45.4688 29.5723 45.625C29.3691 45.7812 29.123 45.9023 28.834 45.9883C28.5488 46.0742 28.2285 46.1172 27.873 46.1172C27.3379 46.1172 26.8848 46.0293 26.5137 45.8535C26.1465 45.6738 25.8672 45.4395 25.6758 45.1504C25.4883 44.8574 25.3945 44.5469 25.3945 44.2188H26.0918C26.1152 44.5469 26.2188 44.8066 26.4023 44.998C26.5859 45.1855 26.8105 45.3184 27.0762 45.3965C27.3457 45.4746 27.6113 45.5137 27.873 45.5137C28.2324 45.5137 28.5332 45.4609 28.7754 45.3555C29.0176 45.25 29.2012 45.1113 29.3262 44.9395C29.4512 44.7676 29.5137 44.582 29.5137 44.3828ZM34.1953 39.6602V40.2344H31.0195V39.6602H34.1953ZM32.1855 38.0312H32.8828V44.459C32.8828 44.752 32.9219 44.9727 33 45.1211C33.0781 45.2695 33.1797 45.3691 33.3047 45.4199C33.4297 45.4707 33.5645 45.4961 33.709 45.4961C33.8145 45.4961 33.916 45.4902 34.0137 45.4785C34.1113 45.4629 34.1992 45.4473 34.2773 45.4316L34.3066 46.0234C34.2207 46.0508 34.1094 46.0723 33.9727 46.0879C33.8359 46.1074 33.6992 46.1172 33.5625 46.1172C33.293 46.1172 33.0547 46.0684 32.8477 45.9707C32.6406 45.8691 32.4785 45.6973 32.3613 45.4551C32.2441 45.209 32.1855 44.875 32.1855 44.4531V38.0312ZM39.5215 44.8633V41.5938C39.5215 41.293 39.459 41.0332 39.334 40.8145C39.209 40.5957 39.0254 40.4277 38.7832 40.3105C38.541 40.1934 38.2422 40.1348 37.8867 40.1348C37.5586 40.1348 37.2656 40.1934 37.0078 40.3105C36.7539 40.4238 36.5527 40.5781 36.4043 40.7734C36.2598 40.9648 36.1875 41.1777 36.1875 41.4121L35.4844 41.4062C35.4844 41.168 35.543 40.9375 35.6602 40.7148C35.7773 40.4922 35.9434 40.293 36.1582 40.1172C36.373 39.9414 36.6289 39.8027 36.9258 39.7012C37.2266 39.5957 37.5566 39.543 37.916 39.543C38.3691 39.543 38.7676 39.6191 39.1113 39.7715C39.459 39.9238 39.7305 40.1523 39.9258 40.457C40.1211 40.7617 40.2188 41.1445 40.2188 41.6055V44.6699C40.2188 44.8887 40.2344 45.1152 40.2656 45.3496C40.3008 45.584 40.3496 45.7773 40.4121 45.9297V46H39.668C39.6211 45.8594 39.584 45.6836 39.5566 45.4727C39.5332 45.2578 39.5215 45.0547 39.5215 44.8633ZM39.6855 42.3086L39.6973 42.8477H38.3203C37.9609 42.8477 37.6387 42.8809 37.3535 42.9473C37.0723 43.0098 36.834 43.1035 36.6387 43.2285C36.4434 43.3496 36.293 43.4961 36.1875 43.668C36.0859 43.8398 36.0352 44.0352 36.0352 44.2539C36.0352 44.4805 36.0918 44.6875 36.2051 44.875C36.3223 45.0625 36.4863 45.2129 36.6973 45.3262C36.9121 45.4355 37.166 45.4902 37.459 45.4902C37.8496 45.4902 38.1934 45.418 38.4902 45.2734C38.791 45.1289 39.0391 44.9395 39.2344 44.7051C39.4297 44.4707 39.5605 44.2148 39.627 43.9375L39.9316 44.3418C39.8809 44.5371 39.7871 44.7383 39.6504 44.9453C39.5176 45.1484 39.3438 45.3398 39.1289 45.5195C38.9141 45.6953 38.6602 45.8398 38.3672 45.9531C38.0781 46.0625 37.75 46.1172 37.3828 46.1172C36.9688 46.1172 36.6074 46.0391 36.2988 45.8828C35.9941 45.7266 35.7559 45.5137 35.584 45.2441C35.416 44.9707 35.332 44.6621 35.332 44.3184C35.332 44.0059 35.3984 43.7266 35.5312 43.4805C35.6641 43.2305 35.8555 43.0195 36.1055 42.8477C36.3594 42.6719 36.6641 42.5391 37.0195 42.4492C37.3789 42.3555 37.7812 42.3086 38.2266 42.3086H39.6855ZM42.8789 37V46H42.1816V37H42.8789ZM45.5742 37V46H44.877V37H45.5742ZM54.4805 44.5352V39.6602H55.1836V46H54.5098L54.4805 44.5352ZM54.6094 43.3633L54.9727 43.3516C54.9727 43.75 54.9258 44.1172 54.832 44.4531C54.7383 44.7891 54.5918 45.082 54.3926 45.332C54.1934 45.582 53.9355 45.7754 53.6191 45.9121C53.3027 46.0488 52.9219 46.1172 52.4766 46.1172C52.168 46.1172 51.8848 46.0742 51.627 45.9883C51.373 45.8984 51.1543 45.7578 50.9707 45.5664C50.7871 45.375 50.6445 45.127 50.543 44.8223C50.4453 44.5176 50.3965 44.1484 50.3965 43.7148V39.6602H51.0938V43.7266C51.0938 44.0664 51.1309 44.3496 51.2051 44.5762C51.2832 44.8027 51.3887 44.9844 51.5215 45.1211C51.6582 45.2578 51.8145 45.3555 51.9902 45.4141C52.166 45.4727 52.3555 45.502 52.5586 45.502C53.0742 45.502 53.4805 45.4023 53.7773 45.2031C54.0781 45.0039 54.291 44.7422 54.416 44.418C54.5449 44.0898 54.6094 43.7383 54.6094 43.3633ZM57.7148 41.0137V46H57.0176V39.6602H57.6855L57.7148 41.0137ZM57.5566 42.4375L57.2461 42.2617C57.2695 41.8867 57.3457 41.5352 57.4746 41.207C57.6035 40.8789 57.7773 40.5898 57.9961 40.3398C58.2188 40.0898 58.4785 39.8945 58.7754 39.7539C59.0762 39.6133 59.4082 39.543 59.7715 39.543C60.0879 39.543 60.3711 39.5859 60.6211 39.6719C60.8711 39.7578 61.084 39.8945 61.2598 40.082C61.4355 40.2695 61.5684 40.5098 61.6582 40.8027C61.752 41.0957 61.7988 41.4531 61.7988 41.875V46H61.0957V41.8691C61.0957 41.4316 61.0352 41.0898 60.9141 40.8438C60.793 40.5938 60.6211 40.416 60.3984 40.3105C60.1758 40.2051 59.9121 40.1523 59.6074 40.1523C59.2715 40.1523 58.9766 40.2266 58.7227 40.375C58.4727 40.5195 58.2617 40.709 58.0898 40.9434C57.9219 41.1738 57.793 41.4219 57.7031 41.6875C57.6133 41.9492 57.5645 42.1992 57.5566 42.4375ZM64.3125 37V46H63.6152V37H64.3125ZM68.291 39.6602L65.3262 42.6016L64.0664 43.8203L63.9609 43.1348L64.9746 42.0391L67.4062 39.6602H68.291ZM67.6816 46L65.0332 42.707L65.4199 42.1035L68.5254 46H67.6816ZM70.1953 41.0137V46H69.498V39.6602H70.166L70.1953 41.0137ZM70.0371 42.4375L69.7266 42.2617C69.75 41.8867 69.8262 41.5352 69.9551 41.207C70.084 40.8789 70.2578 40.5898 70.4766 40.3398C70.6992 40.0898 70.959 39.8945 71.2559 39.7539C71.5566 39.6133 71.8887 39.543 72.252 39.543C72.5684 39.543 72.8516 39.5859 73.1016 39.6719C73.3516 39.7578 73.5645 39.8945 73.7402 40.082C73.916 40.2695 74.0488 40.5098 74.1387 40.8027C74.2324 41.0957 74.2793 41.4531 74.2793 41.875V46H73.5762V41.8691C73.5762 41.4316 73.5156 41.0898 73.3945 40.8438C73.2734 40.5938 73.1016 40.416 72.8789 40.3105C72.6562 40.2051 72.3926 40.1523 72.0879 40.1523C71.752 40.1523 71.457 40.2266 71.2031 40.375C70.9531 40.5195 70.7422 40.709 70.5703 40.9434C70.4023 41.1738 70.2734 41.4219 70.1836 41.6875C70.0938 41.9492 70.0449 42.1992 70.0371 42.4375ZM75.709 42.9297V42.7363C75.709 42.2754 75.7754 41.8496 75.9082 41.459C76.041 41.0684 76.2305 40.7305 76.4766 40.4453C76.7266 40.1602 77.0254 39.9395 77.373 39.7832C77.7207 39.623 78.1074 39.543 78.5332 39.543C78.9629 39.543 79.3516 39.623 79.6992 39.7832C80.0469 39.9395 80.3457 40.1602 80.5957 40.4453C80.8457 40.7305 81.0371 41.0684 81.1699 41.459C81.3027 41.8496 81.3691 42.2754 81.3691 42.7363V42.9297C81.3691 43.3906 81.3027 43.8164 81.1699 44.207C81.0371 44.5938 80.8457 44.9297 80.5957 45.2148C80.3496 45.5 80.0527 45.7227 79.7051 45.8828C79.3574 46.0391 78.9707 46.1172 78.5449 46.1172C78.1152 46.1172 77.7266 46.0391 77.3789 45.8828C77.0312 45.7227 76.7324 45.5 76.4824 45.2148C76.2324 44.9297 76.041 44.5938 75.9082 44.207C75.7754 43.8164 75.709 43.3906 75.709 42.9297ZM76.4062 42.7363V42.9297C76.4062 43.2773 76.4531 43.6074 76.5469 43.9199C76.6406 44.2285 76.7773 44.5039 76.957 44.7461C77.1367 44.9844 77.3594 45.1719 77.625 45.3086C77.8906 45.4453 78.1973 45.5137 78.5449 45.5137C78.8887 45.5137 79.1914 45.4453 79.4531 45.3086C79.7188 45.1719 79.9414 44.9844 80.1211 44.7461C80.3008 44.5039 80.4355 44.2285 80.5254 43.9199C80.6191 43.6074 80.666 43.2773 80.666 42.9297V42.7363C80.666 42.3926 80.6191 42.0664 80.5254 41.7578C80.4355 41.4492 80.2988 41.1738 80.1152 40.9316C79.9355 40.6895 79.7129 40.498 79.4473 40.3574C79.1816 40.2168 78.877 40.1465 78.5332 40.1465C78.1895 40.1465 77.8848 40.2168 77.6191 40.3574C77.3574 40.498 77.1348 40.6895 76.9512 40.9316C76.7715 41.1738 76.6348 41.4492 76.541 41.7578C76.4512 42.0664 76.4062 42.3926 76.4062 42.7363ZM84.5801 44.5176L86.1094 39.6602H86.6016L86.3086 40.9668L84.709 46H84.2168L84.5801 44.5176ZM82.9922 39.6602L84.334 44.5469L84.6211 46H84.1113L82.2715 39.6602H82.9922ZM88.5059 44.5293L89.8125 39.6602H90.5332L88.6934 46H88.1895L88.5059 44.5293ZM86.7012 39.6602L88.207 44.4766L88.5879 46H88.0957L86.4609 40.9609L86.1855 39.6602H86.7012ZM92.5781 41.0137V46H91.8809V39.6602H92.5488L92.5781 41.0137ZM92.4199 42.4375L92.1094 42.2617C92.1328 41.8867 92.209 41.5352 92.3379 41.207C92.4668 40.8789 92.6406 40.5898 92.8594 40.3398C93.082 40.0898 93.3418 39.8945 93.6387 39.7539C93.9395 39.6133 94.2715 39.543 94.6348 39.543C94.9512 39.543 95.2344 39.5859 95.4844 39.6719C95.7344 39.7578 95.9473 39.8945 96.123 40.082C96.2988 40.2695 96.4316 40.5098 96.5215 40.8027C96.6152 41.0957 96.6621 41.4531 96.6621 41.875V46H95.959V41.8691C95.959 41.4316 95.8984 41.0898 95.7773 40.8438C95.6562 40.5938 95.4844 40.416 95.2617 40.3105C95.0391 40.2051 94.7754 40.1523 94.4707 40.1523C94.1348 40.1523 93.8398 40.2266 93.5859 40.375C93.3359 40.5195 93.125 40.709 92.9531 40.9434C92.7852 41.1738 92.6562 41.4219 92.5664 41.6875C92.4766 41.9492 92.4277 42.1992 92.4199 42.4375ZM105.264 44.8633V41.5938C105.264 41.293 105.201 41.0332 105.076 40.8145C104.951 40.5957 104.768 40.4277 104.525 40.3105C104.283 40.1934 103.984 40.1348 103.629 40.1348C103.301 40.1348 103.008 40.1934 102.75 40.3105C102.496 40.4238 102.295 40.5781 102.146 40.7734C102.002 40.9648 101.93 41.1777 101.93 41.4121L101.227 41.4062C101.227 41.168 101.285 40.9375 101.402 40.7148C101.52 40.4922 101.686 40.293 101.9 40.1172C102.115 39.9414 102.371 39.8027 102.668 39.7012C102.969 39.5957 103.299 39.543 103.658 39.543C104.111 39.543 104.51 39.6191 104.854 39.7715C105.201 39.9238 105.473 40.1523 105.668 40.457C105.863 40.7617 105.961 41.1445 105.961 41.6055V44.6699C105.961 44.8887 105.977 45.1152 106.008 45.3496C106.043 45.584 106.092 45.7773 106.154 45.9297V46H105.41C105.363 45.8594 105.326 45.6836 105.299 45.4727C105.275 45.2578 105.264 45.0547 105.264 44.8633ZM105.428 42.3086L105.439 42.8477H104.062C103.703 42.8477 103.381 42.8809 103.096 42.9473C102.814 43.0098 102.576 43.1035 102.381 43.2285C102.186 43.3496 102.035 43.4961 101.93 43.668C101.828 43.8398 101.777 44.0352 101.777 44.2539C101.777 44.4805 101.834 44.6875 101.947 44.875C102.064 45.0625 102.229 45.2129 102.439 45.3262C102.654 45.4355 102.908 45.4902 103.201 45.4902C103.592 45.4902 103.936 45.418 104.232 45.2734C104.533 45.1289 104.781 44.9395 104.977 44.7051C105.172 44.4707 105.303 44.2148 105.369 43.9375L105.674 44.3418C105.623 44.5371 105.529 44.7383 105.393 44.9453C105.26 45.1484 105.086 45.3398 104.871 45.5195C104.656 45.6953 104.402 45.8398 104.109 45.9531C103.82 46.0625 103.492 46.1172 103.125 46.1172C102.711 46.1172 102.35 46.0391 102.041 45.8828C101.736 45.7266 101.498 45.5137 101.326 45.2441C101.158 44.9707 101.074 44.6621 101.074 44.3184C101.074 44.0059 101.141 43.7266 101.273 43.4805C101.406 43.2305 101.598 43.0195 101.848 42.8477C102.102 42.6719 102.406 42.5391 102.762 42.4492C103.121 42.3555 103.523 42.3086 103.969 42.3086H105.428ZM108.533 40.8789V48.4375H107.83V39.6602H108.486L108.533 40.8789ZM112.939 42.7715V42.8945C112.939 43.3672 112.885 43.8008 112.775 44.1953C112.666 44.5898 112.508 44.9316 112.301 45.2207C112.098 45.5059 111.846 45.7266 111.545 45.8828C111.244 46.0391 110.902 46.1172 110.52 46.1172C110.141 46.1172 109.803 46.0586 109.506 45.9414C109.209 45.8242 108.953 45.6582 108.738 45.4434C108.527 45.2246 108.357 44.9707 108.229 44.6816C108.104 44.3887 108.016 44.0684 107.965 43.7207V42.0977C108.023 41.7148 108.119 41.3672 108.252 41.0547C108.385 40.7422 108.555 40.4727 108.762 40.2461C108.973 40.0195 109.223 39.8457 109.512 39.7246C109.801 39.6035 110.131 39.543 110.502 39.543C110.889 39.543 111.232 39.6191 111.533 39.7715C111.838 39.9199 112.094 40.1367 112.301 40.4219C112.512 40.7031 112.67 41.043 112.775 41.4414C112.885 41.8359 112.939 42.2793 112.939 42.7715ZM112.236 42.8945V42.7715C112.236 42.4004 112.197 42.0566 112.119 41.7402C112.045 41.4238 111.93 41.1484 111.773 40.9141C111.621 40.6758 111.426 40.4902 111.188 40.3574C110.953 40.2246 110.674 40.1582 110.35 40.1582C110.014 40.1582 109.727 40.2148 109.488 40.3281C109.254 40.4375 109.059 40.584 108.902 40.7676C108.746 40.9473 108.623 41.1445 108.533 41.3594C108.443 41.5742 108.377 41.7852 108.334 41.9922V43.8613C108.408 44.1582 108.527 44.4336 108.691 44.6875C108.855 44.9375 109.074 45.1387 109.348 45.291C109.625 45.4395 109.963 45.5137 110.361 45.5137C110.682 45.5137 110.959 45.4473 111.193 45.3145C111.428 45.1816 111.621 44.9961 111.773 44.7578C111.93 44.5195 112.045 44.2422 112.119 43.9258C112.197 43.6094 112.236 43.2656 112.236 42.8945ZM115.189 40.8789V48.4375H114.486V39.6602H115.143L115.189 40.8789ZM119.596 42.7715V42.8945C119.596 43.3672 119.541 43.8008 119.432 44.1953C119.322 44.5898 119.164 44.9316 118.957 45.2207C118.754 45.5059 118.502 45.7266 118.201 45.8828C117.9 46.0391 117.559 46.1172 117.176 46.1172C116.797 46.1172 116.459 46.0586 116.162 45.9414C115.865 45.8242 115.609 45.6582 115.395 45.4434C115.184 45.2246 115.014 44.9707 114.885 44.6816C114.76 44.3887 114.672 44.0684 114.621 43.7207V42.0977C114.68 41.7148 114.775 41.3672 114.908 41.0547C115.041 40.7422 115.211 40.4727 115.418 40.2461C115.629 40.0195 115.879 39.8457 116.168 39.7246C116.457 39.6035 116.787 39.543 117.158 39.543C117.545 39.543 117.889 39.6191 118.189 39.7715C118.494 39.9199 118.75 40.1367 118.957 40.4219C119.168 40.7031 119.326 41.043 119.432 41.4414C119.541 41.8359 119.596 42.2793 119.596 42.7715ZM118.893 42.8945V42.7715C118.893 42.4004 118.854 42.0566 118.775 41.7402C118.701 41.4238 118.586 41.1484 118.43 40.9141C118.277 40.6758 118.082 40.4902 117.844 40.3574C117.609 40.2246 117.33 40.1582 117.006 40.1582C116.67 40.1582 116.383 40.2148 116.145 40.3281C115.91 40.4375 115.715 40.584 115.559 40.7676C115.402 40.9473 115.279 41.1445 115.189 41.3594C115.1 41.5742 115.033 41.7852 114.99 41.9922V43.8613C115.064 44.1582 115.184 44.4336 115.348 44.6875C115.512 44.9375 115.73 45.1387 116.004 45.291C116.281 45.4395 116.619 45.5137 117.018 45.5137C117.338 45.5137 117.615 45.4473 117.85 45.3145C118.084 45.1816 118.277 44.9961 118.43 44.7578C118.586 44.5195 118.701 44.2422 118.775 43.9258C118.854 43.6094 118.893 43.2656 118.893 42.8945ZM124.951 44.3828C124.951 44.2109 124.908 44.041 124.822 43.873C124.736 43.7051 124.57 43.5508 124.324 43.4102C124.082 43.2695 123.725 43.1504 123.252 43.0527C122.9 42.9746 122.586 42.8867 122.309 42.7891C122.035 42.6914 121.805 42.5742 121.617 42.4375C121.43 42.3008 121.287 42.1367 121.189 41.9453C121.092 41.7539 121.043 41.5273 121.043 41.2656C121.043 41.0312 121.094 40.8105 121.195 40.6035C121.301 40.3926 121.449 40.209 121.641 40.0527C121.836 39.8926 122.07 39.7676 122.344 39.6777C122.621 39.5879 122.932 39.543 123.275 39.543C123.764 39.543 124.182 39.627 124.529 39.7949C124.881 39.959 125.148 40.1836 125.332 40.4688C125.52 40.7539 125.613 41.0762 125.613 41.4355H124.916C124.916 41.2168 124.852 41.0098 124.723 40.8145C124.598 40.6191 124.412 40.459 124.166 40.334C123.924 40.209 123.627 40.1465 123.275 40.1465C122.912 40.1465 122.617 40.2012 122.391 40.3105C122.164 40.4199 121.998 40.5586 121.893 40.7266C121.791 40.8945 121.74 41.0684 121.74 41.248C121.74 41.3887 121.762 41.5176 121.805 41.6348C121.852 41.748 121.934 41.8535 122.051 41.9512C122.172 42.0488 122.344 42.1406 122.566 42.2266C122.789 42.3125 123.078 42.3965 123.434 42.4785C123.945 42.5918 124.363 42.7305 124.688 42.8945C125.016 43.0547 125.258 43.2539 125.414 43.4922C125.57 43.7266 125.648 44.0117 125.648 44.3477C125.648 44.6094 125.594 44.8496 125.484 45.0684C125.375 45.2832 125.217 45.4688 125.01 45.625C124.807 45.7812 124.561 45.9023 124.271 45.9883C123.986 46.0742 123.666 46.1172 123.311 46.1172C122.775 46.1172 122.322 46.0293 121.951 45.8535C121.584 45.6738 121.305 45.4395 121.113 45.1504C120.926 44.8574 120.832 44.5469 120.832 44.2188H121.529C121.553 44.5469 121.656 44.8066 121.84 44.998C122.023 45.1855 122.248 45.3184 122.514 45.3965C122.783 45.4746 123.049 45.5137 123.311 45.5137C123.67 45.5137 123.971 45.4609 124.213 45.3555C124.455 45.25 124.639 45.1113 124.764 44.9395C124.889 44.7676 124.951 44.582 124.951 44.3828Z" fill="#212121"/>
<path d="M18.5254 65.3921L16.5918 71.2856H15.0342L17.6758 64.1763H18.667L18.5254 65.3921ZM20.1318 71.2856L18.1934 65.3921L18.0371 64.1763H19.0381L21.6943 71.2856H20.1318ZM20.0439 68.6392V69.7866H16.2891V68.6392H20.0439ZM23.75 63.7856V71.2856H22.3389V63.7856H23.75ZM26.3965 63.7856V71.2856H24.9854V63.7856H26.3965ZM27.334 68.6978V68.5952C27.334 68.2078 27.3893 67.8514 27.5 67.5259C27.6107 67.1971 27.7718 66.9123 27.9834 66.6714C28.195 66.4305 28.4554 66.2433 28.7646 66.1099C29.0739 65.9731 29.4287 65.9048 29.8291 65.9048C30.2295 65.9048 30.5859 65.9731 30.8984 66.1099C31.2109 66.2433 31.473 66.4305 31.6846 66.6714C31.8994 66.9123 32.0622 67.1971 32.1729 67.5259C32.2835 67.8514 32.3389 68.2078 32.3389 68.5952V68.6978C32.3389 69.0819 32.2835 69.4383 32.1729 69.7671C32.0622 70.0926 31.8994 70.3774 31.6846 70.6216C31.473 70.8625 31.2126 71.0496 30.9033 71.1831C30.5941 71.3166 30.2393 71.3833 29.8389 71.3833C29.4385 71.3833 29.082 71.3166 28.7695 71.1831C28.4603 71.0496 28.1982 70.8625 27.9834 70.6216C27.7718 70.3774 27.6107 70.0926 27.5 69.7671C27.3893 69.4383 27.334 69.0819 27.334 68.6978ZM28.7402 68.5952V68.6978C28.7402 68.9191 28.7598 69.1258 28.7988 69.3179C28.8379 69.5099 28.8997 69.6792 28.9844 69.8257C29.0723 69.9689 29.1862 70.0812 29.3262 70.1626C29.4661 70.244 29.637 70.2847 29.8389 70.2847C30.0342 70.2847 30.2018 70.244 30.3418 70.1626C30.4818 70.0812 30.5941 69.9689 30.6787 69.8257C30.7633 69.6792 30.8252 69.5099 30.8643 69.3179C30.9066 69.1258 30.9277 68.9191 30.9277 68.6978V68.5952C30.9277 68.3804 30.9066 68.1785 30.8643 67.9897C30.8252 67.7977 30.7617 67.6284 30.6738 67.4819C30.5892 67.3322 30.4769 67.215 30.3369 67.1304C30.1969 67.0457 30.0277 67.0034 29.8291 67.0034C29.6305 67.0034 29.4613 67.0457 29.3213 67.1304C29.1846 67.215 29.0723 67.3322 28.9844 67.4819C28.8997 67.6284 28.8379 67.7977 28.7988 67.9897C28.7598 68.1785 28.7402 68.3804 28.7402 68.5952ZM34.7119 69.9185L35.8105 66.0024H36.7041L36.416 67.5405L35.3174 71.2856H34.5703L34.7119 69.9185ZM34.1553 66.0024L34.9414 69.9136L35.0146 71.2856H34.1357L32.7979 66.0024H34.1553ZM37.71 69.8501L38.4766 66.0024H39.8389L38.501 71.2856H37.627L37.71 69.8501ZM36.8262 66.0024L37.9199 69.8892L38.0713 71.2856H37.3193L36.2207 67.5454L35.9424 66.0024H36.8262ZM44.8291 71.2856H43.4131V65.5337C43.4131 65.1333 43.4912 64.7964 43.6475 64.5229C43.807 64.2463 44.0299 64.0379 44.3164 63.8979C44.6061 63.7547 44.9495 63.6831 45.3467 63.6831C45.4769 63.6831 45.6022 63.6929 45.7227 63.7124C45.8431 63.7287 45.9603 63.7498 46.0742 63.7759L46.0596 64.8354C45.9977 64.8192 45.9326 64.8078 45.8643 64.8013C45.7959 64.7948 45.7161 64.7915 45.625 64.7915C45.4557 64.7915 45.3109 64.8208 45.1904 64.8794C45.0732 64.9347 44.9837 65.0177 44.9219 65.1284C44.86 65.2391 44.8291 65.3742 44.8291 65.5337V71.2856ZM45.8838 66.0024V66.9985H42.627V66.0024H45.8838ZM48.0273 67.1548V71.2856H46.6211V66.0024H47.9443L48.0273 67.1548ZM49.6191 65.9683L49.5947 67.272C49.5264 67.2622 49.4434 67.2541 49.3457 67.2476C49.2513 67.2378 49.165 67.2329 49.0869 67.2329C48.8883 67.2329 48.7158 67.259 48.5693 67.311C48.4261 67.3599 48.3057 67.4331 48.208 67.5308C48.1136 67.6284 48.042 67.7472 47.9932 67.8872C47.9476 68.0272 47.9215 68.1867 47.915 68.3657L47.6318 68.2778C47.6318 67.936 47.666 67.6219 47.7344 67.3354C47.8027 67.0457 47.902 66.7935 48.0322 66.5786C48.1657 66.3638 48.3285 66.1978 48.5205 66.0806C48.7126 65.9634 48.9323 65.9048 49.1797 65.9048C49.2578 65.9048 49.3376 65.9113 49.4189 65.9243C49.5003 65.9341 49.5671 65.9487 49.6191 65.9683ZM49.9121 68.6978V68.5952C49.9121 68.2078 49.9674 67.8514 50.0781 67.5259C50.1888 67.1971 50.3499 66.9123 50.5615 66.6714C50.7731 66.4305 51.0335 66.2433 51.3428 66.1099C51.652 65.9731 52.0068 65.9048 52.4072 65.9048C52.8076 65.9048 53.1641 65.9731 53.4766 66.1099C53.7891 66.2433 54.0511 66.4305 54.2627 66.6714C54.4775 66.9123 54.6403 67.1971 54.751 67.5259C54.8617 67.8514 54.917 68.2078 54.917 68.5952V68.6978C54.917 69.0819 54.8617 69.4383 54.751 69.7671C54.6403 70.0926 54.4775 70.3774 54.2627 70.6216C54.0511 70.8625 53.7907 71.0496 53.4814 71.1831C53.1722 71.3166 52.8174 71.3833 52.417 71.3833C52.0166 71.3833 51.6602 71.3166 51.3477 71.1831C51.0384 71.0496 50.7764 70.8625 50.5615 70.6216C50.3499 70.3774 50.1888 70.0926 50.0781 69.7671C49.9674 69.4383 49.9121 69.0819 49.9121 68.6978ZM51.3184 68.5952V68.6978C51.3184 68.9191 51.3379 69.1258 51.377 69.3179C51.416 69.5099 51.4779 69.6792 51.5625 69.8257C51.6504 69.9689 51.7643 70.0812 51.9043 70.1626C52.0443 70.244 52.2152 70.2847 52.417 70.2847C52.6123 70.2847 52.7799 70.244 52.9199 70.1626C53.0599 70.0812 53.1722 69.9689 53.2568 69.8257C53.3415 69.6792 53.4033 69.5099 53.4424 69.3179C53.4847 69.1258 53.5059 68.9191 53.5059 68.6978V68.5952C53.5059 68.3804 53.4847 68.1785 53.4424 67.9897C53.4033 67.7977 53.3398 67.6284 53.252 67.4819C53.1673 67.3322 53.055 67.215 52.915 67.1304C52.7751 67.0457 52.6058 67.0034 52.4072 67.0034C52.2087 67.0034 52.0394 67.0457 51.8994 67.1304C51.7627 67.215 51.6504 67.3322 51.5625 67.4819C51.4779 67.6284 51.416 67.7977 51.377 67.9897C51.3379 68.1785 51.3184 68.3804 51.3184 68.5952ZM57.1875 67.0962V71.2856H55.7764V66.0024H57.0996L57.1875 67.0962ZM56.9922 68.4585H56.6016C56.6016 68.0907 56.6455 67.7521 56.7334 67.4429C56.8245 67.1304 56.9564 66.8602 57.1289 66.6323C57.3047 66.4012 57.5212 66.2222 57.7783 66.0952C58.0355 65.9683 58.3333 65.9048 58.6719 65.9048C58.9062 65.9048 59.1211 65.9406 59.3164 66.0122C59.5117 66.0806 59.6794 66.1896 59.8193 66.3394C59.9626 66.4858 60.0732 66.6779 60.1514 66.9155C60.2295 67.1499 60.2686 67.4315 60.2686 67.7603V71.2856H58.8623V67.9165C58.8623 67.6756 58.8298 67.4901 58.7646 67.3599C58.6995 67.2297 58.6068 67.1385 58.4863 67.0864C58.3691 67.0343 58.2275 67.0083 58.0615 67.0083C57.8792 67.0083 57.7197 67.0457 57.583 67.1206C57.4495 67.1955 57.3389 67.2996 57.251 67.4331C57.1631 67.5633 57.098 67.7163 57.0557 67.8921C57.0133 68.0679 56.9922 68.2567 56.9922 68.4585ZM60.1367 68.2974L59.6338 68.3608C59.6338 68.0158 59.6761 67.6951 59.7607 67.3989C59.8486 67.1027 59.9772 66.8423 60.1465 66.6177C60.319 66.3931 60.5322 66.2189 60.7861 66.0952C61.04 65.9683 61.333 65.9048 61.665 65.9048C61.9189 65.9048 62.1501 65.9422 62.3584 66.0171C62.5667 66.0887 62.7441 66.2043 62.8906 66.3638C63.0404 66.52 63.1543 66.7251 63.2324 66.979C63.3138 67.2329 63.3545 67.5438 63.3545 67.9116V71.2856H61.9434V67.9116C61.9434 67.6675 61.9108 67.4819 61.8457 67.355C61.7839 67.2248 61.6927 67.1353 61.5723 67.0864C61.4551 67.0343 61.3151 67.0083 61.1523 67.0083C60.9831 67.0083 60.835 67.0425 60.708 67.1108C60.5811 67.1759 60.4753 67.2671 60.3906 67.3843C60.306 67.5015 60.2425 67.6382 60.2002 67.7944C60.1579 67.9474 60.1367 68.1151 60.1367 68.2974ZM69.5215 66.0024V66.9985H66.4453V66.0024H69.5215ZM67.207 64.6987H68.6133V69.6938C68.6133 69.8468 68.6328 69.964 68.6719 70.0454C68.7142 70.1268 68.776 70.1838 68.8574 70.2163C68.9388 70.2456 69.0413 70.2603 69.165 70.2603C69.2529 70.2603 69.3311 70.257 69.3994 70.2505C69.471 70.2407 69.5312 70.231 69.5801 70.2212L69.585 71.2563C69.4645 71.2954 69.3343 71.3263 69.1943 71.3491C69.0544 71.3719 68.8997 71.3833 68.7305 71.3833C68.4212 71.3833 68.151 71.3328 67.9199 71.2319C67.6921 71.1278 67.5163 70.9618 67.3926 70.7339C67.2689 70.506 67.207 70.2065 67.207 69.8354V64.6987ZM71.6943 63.7856V71.2856H70.2881V63.7856H71.6943ZM71.4941 68.4585H71.1084C71.1117 68.0907 71.1605 67.7521 71.2549 67.4429C71.3493 67.1304 71.4844 66.8602 71.6602 66.6323C71.8359 66.4012 72.0459 66.2222 72.29 66.0952C72.5374 65.9683 72.8109 65.9048 73.1104 65.9048C73.3708 65.9048 73.6068 65.9422 73.8184 66.0171C74.0332 66.0887 74.2171 66.2059 74.3701 66.3687C74.5264 66.5282 74.6468 66.7381 74.7314 66.9985C74.8161 67.259 74.8584 67.5747 74.8584 67.9458V71.2856H73.4424V67.936C73.4424 67.7017 73.4082 67.5177 73.3398 67.3843C73.2747 67.2476 73.1787 67.1515 73.0518 67.0962C72.9281 67.0376 72.7751 67.0083 72.5928 67.0083C72.391 67.0083 72.2184 67.0457 72.0752 67.1206C71.9352 67.1955 71.8229 67.2996 71.7383 67.4331C71.6536 67.5633 71.5918 67.7163 71.5527 67.8921C71.5137 68.0679 71.4941 68.2567 71.4941 68.4585ZM77.4121 66.0024V71.2856H76.001V66.0024H77.4121ZM75.9131 64.6255C75.9131 64.4204 75.9847 64.2511 76.1279 64.1177C76.2712 63.9842 76.4632 63.9175 76.7041 63.9175C76.9417 63.9175 77.1322 63.9842 77.2754 64.1177C77.4219 64.2511 77.4951 64.4204 77.4951 64.6255C77.4951 64.8306 77.4219 64.9998 77.2754 65.1333C77.1322 65.2668 76.9417 65.3335 76.7041 65.3335C76.4632 65.3335 76.2712 65.2668 76.1279 65.1333C75.9847 64.9998 75.9131 64.8306 75.9131 64.6255ZM81.4307 69.8257C81.4307 69.7248 81.4014 69.6336 81.3428 69.5522C81.2842 69.4709 81.1751 69.396 81.0156 69.3276C80.8594 69.256 80.6331 69.1909 80.3369 69.1323C80.07 69.0737 79.821 69.0005 79.5898 68.9126C79.362 68.8215 79.1634 68.7124 78.9941 68.5854C78.8281 68.4585 78.6979 68.3088 78.6035 68.1362C78.5091 67.9604 78.4619 67.7603 78.4619 67.5356C78.4619 67.3143 78.5091 67.106 78.6035 66.9106C78.7012 66.7153 78.8395 66.5428 79.0186 66.3931C79.2008 66.2401 79.4222 66.1213 79.6826 66.0366C79.9463 65.9487 80.2425 65.9048 80.5713 65.9048C81.0303 65.9048 81.4242 65.978 81.7529 66.1245C82.085 66.271 82.3389 66.4728 82.5146 66.73C82.6937 66.9839 82.7832 67.2736 82.7832 67.5991H81.377C81.377 67.4624 81.3477 67.3403 81.2891 67.2329C81.2337 67.1222 81.1458 67.036 81.0254 66.9741C80.9082 66.909 80.7552 66.8765 80.5664 66.8765C80.4102 66.8765 80.2751 66.9041 80.1611 66.9595C80.0472 67.0116 79.9593 67.0832 79.8975 67.1743C79.8389 67.2622 79.8096 67.3599 79.8096 67.4673C79.8096 67.5487 79.8258 67.6219 79.8584 67.687C79.8942 67.7489 79.9512 67.8058 80.0293 67.8579C80.1074 67.91 80.2083 67.9588 80.332 68.0044C80.459 68.0467 80.6152 68.0858 80.8008 68.1216C81.1816 68.1997 81.5218 68.3022 81.8213 68.4292C82.1208 68.5529 82.3584 68.7222 82.5342 68.937C82.71 69.1486 82.7979 69.4269 82.7979 69.772C82.7979 70.0063 82.7458 70.2212 82.6416 70.4165C82.5374 70.6118 82.3877 70.7827 82.1924 70.9292C81.9971 71.0724 81.7627 71.1847 81.4893 71.2661C81.2191 71.3442 80.9147 71.3833 80.5762 71.3833C80.0846 71.3833 79.668 71.2954 79.3262 71.1196C78.9876 70.9438 78.7305 70.7209 78.5547 70.4507C78.3822 70.1772 78.2959 69.8973 78.2959 69.6108H79.6289C79.6354 69.8029 79.6842 69.9575 79.7754 70.0747C79.8698 70.1919 79.9886 70.2765 80.1318 70.3286C80.2783 70.3807 80.4362 70.4067 80.6055 70.4067C80.7878 70.4067 80.9391 70.3823 81.0596 70.3335C81.18 70.2814 81.2712 70.2131 81.333 70.1284C81.3981 70.0405 81.4307 69.9396 81.4307 69.8257ZM89.0576 69.8257C89.0576 69.7248 89.0283 69.6336 88.9697 69.5522C88.9111 69.4709 88.8021 69.396 88.6426 69.3276C88.4863 69.256 88.2601 69.1909 87.9639 69.1323C87.6969 69.0737 87.4479 69.0005 87.2168 68.9126C86.9889 68.8215 86.7904 68.7124 86.6211 68.5854C86.4551 68.4585 86.3249 68.3088 86.2305 68.1362C86.1361 67.9604 86.0889 67.7603 86.0889 67.5356C86.0889 67.3143 86.1361 67.106 86.2305 66.9106C86.3281 66.7153 86.4665 66.5428 86.6455 66.3931C86.8278 66.2401 87.0492 66.1213 87.3096 66.0366C87.5732 65.9487 87.8695 65.9048 88.1982 65.9048C88.6572 65.9048 89.0511 65.978 89.3799 66.1245C89.7119 66.271 89.9658 66.4728 90.1416 66.73C90.3206 66.9839 90.4102 67.2736 90.4102 67.5991H89.0039C89.0039 67.4624 88.9746 67.3403 88.916 67.2329C88.8607 67.1222 88.7728 67.036 88.6523 66.9741C88.5352 66.909 88.3822 66.8765 88.1934 66.8765C88.0371 66.8765 87.902 66.9041 87.7881 66.9595C87.6742 67.0116 87.5863 67.0832 87.5244 67.1743C87.4658 67.2622 87.4365 67.3599 87.4365 67.4673C87.4365 67.5487 87.4528 67.6219 87.4854 67.687C87.5212 67.7489 87.5781 67.8058 87.6562 67.8579C87.7344 67.91 87.8353 67.9588 87.959 68.0044C88.0859 68.0467 88.2422 68.0858 88.4277 68.1216C88.8086 68.1997 89.1488 68.3022 89.4482 68.4292C89.7477 68.5529 89.9854 68.7222 90.1611 68.937C90.3369 69.1486 90.4248 69.4269 90.4248 69.772C90.4248 70.0063 90.3727 70.2212 90.2686 70.4165C90.1644 70.6118 90.0146 70.7827 89.8193 70.9292C89.624 71.0724 89.3896 71.1847 89.1162 71.2661C88.846 71.3442 88.5417 71.3833 88.2031 71.3833C87.7116 71.3833 87.2949 71.2954 86.9531 71.1196C86.6146 70.9438 86.3574 70.7209 86.1816 70.4507C86.0091 70.1772 85.9229 69.8973 85.9229 69.6108H87.2559C87.2624 69.8029 87.3112 69.9575 87.4023 70.0747C87.4967 70.1919 87.6156 70.2765 87.7588 70.3286C87.9053 70.3807 88.0632 70.4067 88.2324 70.4067C88.4147 70.4067 88.5661 70.3823 88.6865 70.3335C88.807 70.2814 88.8981 70.2131 88.96 70.1284C89.0251 70.0405 89.0576 69.9396 89.0576 69.8257ZM91.1133 68.6978V68.5952C91.1133 68.2078 91.1686 67.8514 91.2793 67.5259C91.39 67.1971 91.5511 66.9123 91.7627 66.6714C91.9743 66.4305 92.2347 66.2433 92.5439 66.1099C92.8532 65.9731 93.208 65.9048 93.6084 65.9048C94.0088 65.9048 94.3652 65.9731 94.6777 66.1099C94.9902 66.2433 95.2523 66.4305 95.4639 66.6714C95.6787 66.9123 95.8415 67.1971 95.9521 67.5259C96.0628 67.8514 96.1182 68.2078 96.1182 68.5952V68.6978C96.1182 69.0819 96.0628 69.4383 95.9521 69.7671C95.8415 70.0926 95.6787 70.3774 95.4639 70.6216C95.2523 70.8625 94.9919 71.0496 94.6826 71.1831C94.3734 71.3166 94.0186 71.3833 93.6182 71.3833C93.2178 71.3833 92.8613 71.3166 92.5488 71.1831C92.2396 71.0496 91.9775 70.8625 91.7627 70.6216C91.5511 70.3774 91.39 70.0926 91.2793 69.7671C91.1686 69.4383 91.1133 69.0819 91.1133 68.6978ZM92.5195 68.5952V68.6978C92.5195 68.9191 92.5391 69.1258 92.5781 69.3179C92.6172 69.5099 92.679 69.6792 92.7637 69.8257C92.8516 69.9689 92.9655 70.0812 93.1055 70.1626C93.2454 70.244 93.4163 70.2847 93.6182 70.2847C93.8135 70.2847 93.9811 70.244 94.1211 70.1626C94.2611 70.0812 94.3734 69.9689 94.458 69.8257C94.5426 69.6792 94.6045 69.5099 94.6436 69.3179C94.6859 69.1258 94.707 68.9191 94.707 68.6978V68.5952C94.707 68.3804 94.6859 68.1785 94.6436 67.9897C94.6045 67.7977 94.541 67.6284 94.4531 67.4819C94.3685 67.3322 94.2562 67.215 94.1162 67.1304C93.9762 67.0457 93.807 67.0034 93.6084 67.0034C93.4098 67.0034 93.2406 67.0457 93.1006 67.1304C92.9639 67.215 92.8516 67.3322 92.7637 67.4819C92.679 67.6284 92.6172 67.7977 92.5781 67.9897C92.5391 68.1785 92.5195 68.3804 92.5195 68.5952ZM100.107 70.021V66.0024H101.514V71.2856H100.19L100.107 70.021ZM100.264 68.937L100.679 68.9272C100.679 69.2788 100.638 69.606 100.557 69.9087C100.475 70.2082 100.353 70.4686 100.19 70.6899C100.028 70.908 99.8226 71.0789 99.5752 71.2026C99.3278 71.3231 99.0365 71.3833 98.7012 71.3833C98.444 71.3833 98.2064 71.3475 97.9883 71.2759C97.7734 71.201 97.5879 71.0854 97.4316 70.9292C97.2786 70.7697 97.1582 70.5662 97.0703 70.3188C96.9857 70.0682 96.9434 69.7671 96.9434 69.4155V66.0024H98.3496V69.4253C98.3496 69.5815 98.3675 69.7134 98.4033 69.8208C98.4424 69.9282 98.4961 70.0161 98.5645 70.0845C98.6328 70.1528 98.7126 70.2017 98.8037 70.231C98.8981 70.2603 99.0023 70.2749 99.1162 70.2749C99.4059 70.2749 99.6338 70.2163 99.7998 70.0991C99.9691 69.9819 100.088 69.8224 100.156 69.6206C100.228 69.4155 100.264 69.1877 100.264 68.937ZM103.994 67.1548V71.2856H102.588V66.0024H103.911L103.994 67.1548ZM105.586 65.9683L105.562 67.272C105.493 67.2622 105.41 67.2541 105.312 67.2476C105.218 67.2378 105.132 67.2329 105.054 67.2329C104.855 67.2329 104.683 67.259 104.536 67.311C104.393 67.3599 104.272 67.4331 104.175 67.5308C104.08 67.6284 104.009 67.7472 103.96 67.8872C103.914 68.0272 103.888 68.1867 103.882 68.3657L103.599 68.2778C103.599 67.936 103.633 67.6219 103.701 67.3354C103.77 67.0457 103.869 66.7935 103.999 66.5786C104.132 66.3638 104.295 66.1978 104.487 66.0806C104.679 65.9634 104.899 65.9048 105.146 65.9048C105.225 65.9048 105.304 65.9113 105.386 65.9243C105.467 65.9341 105.534 65.9487 105.586 65.9683ZM108.335 70.2847C108.507 70.2847 108.66 70.2521 108.794 70.187C108.927 70.1187 109.032 70.0243 109.106 69.9038C109.185 69.7801 109.225 69.6353 109.229 69.4692H110.552C110.549 69.8403 110.449 70.1707 110.254 70.4604C110.059 70.7469 109.797 70.9731 109.468 71.1392C109.139 71.3019 108.771 71.3833 108.364 71.3833C107.954 71.3833 107.596 71.3149 107.29 71.1782C106.987 71.0415 106.735 70.8527 106.533 70.6118C106.331 70.3677 106.18 70.0845 106.079 69.7622C105.978 69.4367 105.928 69.0884 105.928 68.7173V68.5757C105.928 68.2013 105.978 67.853 106.079 67.5308C106.18 67.2052 106.331 66.922 106.533 66.6812C106.735 66.437 106.987 66.2466 107.29 66.1099C107.593 65.9731 107.948 65.9048 108.354 65.9048C108.787 65.9048 109.167 65.9878 109.492 66.1538C109.821 66.3198 110.078 66.5575 110.264 66.8667C110.452 67.1727 110.549 67.5356 110.552 67.9556H109.229C109.225 67.7798 109.188 67.6203 109.116 67.4771C109.048 67.3338 108.947 67.2199 108.813 67.1353C108.683 67.0474 108.522 67.0034 108.33 67.0034C108.125 67.0034 107.957 67.0474 107.827 67.1353C107.697 67.2199 107.596 67.3371 107.524 67.4868C107.453 67.6333 107.402 67.8009 107.373 67.9897C107.347 68.1753 107.334 68.3706 107.334 68.5757V68.7173C107.334 68.9224 107.347 69.1193 107.373 69.3081C107.399 69.4969 107.448 69.6646 107.52 69.811C107.594 69.9575 107.697 70.0731 107.827 70.1577C107.957 70.2424 108.127 70.2847 108.335 70.2847ZM113.799 71.3833C113.389 71.3833 113.021 71.3182 112.695 71.188C112.37 71.0545 112.093 70.8706 111.865 70.6362C111.641 70.4019 111.468 70.13 111.348 69.8208C111.227 69.5083 111.167 69.1763 111.167 68.8247V68.6294C111.167 68.229 111.224 67.8628 111.338 67.5308C111.452 67.1987 111.615 66.9106 111.826 66.6665C112.041 66.4224 112.301 66.2352 112.607 66.105C112.913 65.9715 113.258 65.9048 113.643 65.9048C114.017 65.9048 114.349 65.9666 114.639 66.0903C114.928 66.214 115.171 66.3898 115.366 66.6177C115.565 66.8455 115.715 67.119 115.815 67.438C115.916 67.7537 115.967 68.1053 115.967 68.4927V69.0786H111.768V68.1411H114.585V68.0337C114.585 67.8384 114.549 67.6642 114.478 67.5112C114.409 67.355 114.305 67.2313 114.165 67.1401C114.025 67.049 113.846 67.0034 113.628 67.0034C113.442 67.0034 113.283 67.0441 113.149 67.1255C113.016 67.2069 112.907 67.3208 112.822 67.4673C112.741 67.6138 112.679 67.7863 112.637 67.9849C112.598 68.1802 112.578 68.395 112.578 68.6294V68.8247C112.578 69.0363 112.607 69.2316 112.666 69.4106C112.728 69.5897 112.814 69.7443 112.925 69.8745C113.039 70.0047 113.175 70.1056 113.335 70.1772C113.498 70.2489 113.682 70.2847 113.887 70.2847C114.141 70.2847 114.377 70.2358 114.595 70.1382C114.816 70.0373 115.007 69.8859 115.166 69.6841L115.85 70.4263C115.739 70.5858 115.588 70.7388 115.396 70.8853C115.207 71.0317 114.979 71.1522 114.712 71.2466C114.445 71.3377 114.141 71.3833 113.799 71.3833Z" fill="#4C4C4C"/>
<rect x="138.286" y="63.7998" width="22" height="7.54286" rx="3.77143" fill="#FE9150"/>
<g filter="url(#filter0_d_1994_11151)">
<rect x="148.064" y="61.2856" width="12.2222" height="12.5714" rx="6.11111" fill="#FE6446"/>
</g>
<g filter="url(#filter1_d_1994_11151)">
<rect x="148.064" y="61.2856" width="12.2222" height="12.5714" rx="6.11111" fill="#FE6446"/>
</g>
<defs>
<filter id="filter0_d_1994_11151" x="142.064" y="57.2856" width="24.2222" height="24.5713" filterUnits="userSpaceOnUse" color-interpolation-filters="sRGB">
<feFlood flood-opacity="0" result="BackgroundImageFix"/>
<feColorMatrix in="SourceAlpha" type="matrix" values="0 0 0 0 0 0 0 0 0 0 0 0 0 0 0 0 0 0 127 0" result="hardAlpha"/>
<feOffset dy="2"/>
<feGaussianBlur stdDeviation="3"/>
<feColorMatrix type="matrix" values="0 0 0 0 0 0 0 0 0 0 0 0 0 0 0 0 0 0 0.13 0"/>
<feBlend mode="normal" in2="BackgroundImageFix" result="effect1_dropShadow_1994_11151"/>
<feBlend mode="normal" in="SourceGraphic" in2="effect1_dropShadow_1994_11151" result="shape"/>
</filter>
<filter id="filter1_d_1994_11151" x="142.064" y="57.2856" width="24.2222" height="24.5713" filterUnits="userSpaceOnUse" color-interpolation-filters="sRGB">
<feFlood flood-opacity="0" result="BackgroundImageFix"/>
<feColorMatrix in="SourceAlpha" type="matrix" values="0 0 0 0 0 0 0 0 0 0 0 0 0 0 0 0 0 0 127 0" result="hardAlpha"/>
<feOffset dy="2"/>
<feGaussianBlur stdDeviation="3"/>
<feColorMatrix type="matrix" values="0 0 0 0 0 0 0 0 0 0 0 0 0 0 0 0 0 0 0.13 0"/>
<feBlend mode="normal" in2="BackgroundImageFix" result="effect1_dropShadow_1994_11151"/>
<feBlend mode="normal" in="SourceGraphic" in2="effect1_dropShadow_1994_11151" result="shape"/>
</filter>
<clipPath id="clip0_1994_11151">
<rect width="20.4286" height="4.71429" fill="white" transform="translate(139.857 14.7139)"/>
</clipPath>
</defs>
</svg>
